<svg xmlns="http://www.w3.org/2000/svg" width="45.77" height="45.768" viewBox="0 0 45.77 45.768">
  <g id="friend" transform="translate(-65.001 1226.984)">
    <path id="联合_19" data-name="联合 19" d="M39.213,45.768H33.87a1.351,1.351,0,0,1-1.5-1.524q0-2.961,0-5.922t.007-5.922V32.39c0-.358-.078-.52-.468-.626a17.64,17.64,0,0,1-6.748-3.615c-.112-.094-.218-.2-.351-.319a20.153,20.153,0,0,0,3.97-7.429,9.828,9.828,0,0,0,8.1,3.932h.007q.607,0,1.235-.057a5.436,5.436,0,0,1-4.426-5.295,4.734,4.734,0,0,1,.073-.845l.012-.062a5.329,5.329,0,0,1,5.4-4.491h.006q.159,0,.32.008h.024a5.44,5.44,0,0,1,4.895,4.83q.019.243.019.48a5.551,5.551,0,0,1-4.5,5.432l.674.155a6.682,6.682,0,0,1,5.159,6.466q0,2.705,0,5.411,0,3.954,0,7.908a1.34,1.34,0,0,1-1.485,1.491H39.213Zm-32.259,0H1.52A1.347,1.347,0,0,1,0,44.266q0-3.954,0-7.908,0-2.706,0-5.411A6.7,6.7,0,0,1,5.562,24.4a3.384,3.384,0,0,0,.339-.1,5.476,5.476,0,0,1-4.573-5.324,4.846,4.846,0,0,1,.064-.788l.006-.034L1.4,18.12a5.316,5.316,0,0,1,5.444-4.533h0c.085,0,.169,0,.255,0a5.41,5.41,0,0,1,4.944,4.776q.028.282.027.56a5.408,5.408,0,0,1-4.428,5.325,5,5,0,0,0,1.093.1h.016a12.663,12.663,0,0,0,3.8-.609,9.6,9.6,0,0,0,6.3-8.948,4.019,4.019,0,0,1,3.364-3.932l.014,0,.025,0a3.53,3.53,0,0,1,.644-.059h.007a4.114,4.114,0,0,1,3.673,2.453,4.4,4.4,0,0,1,.328,1.811c0,.289-.015.579-.033.869A17.6,17.6,0,0,1,13.817,31.788c-.367.1-.416.252-.417.569v.008q.006,2.95.005,5.9t0,5.9c0,1.111-.493,1.6-1.6,1.6H6.954ZM27.027,7.259a1.456,1.456,0,0,1-.137-.6,1.21,1.21,0,0,1,.359-.852q1.36-1.414,2.774-2.776a1.292,1.292,0,0,1,.9-.362h.005a1.359,1.359,0,0,1,.924.367l.02.019.007.006a1.36,1.36,0,0,1,.4.969,1.277,1.277,0,0,1-.354.884q-1.354,1.419-2.778,2.771a2.408,2.408,0,0,1-.707.367A1.4,1.4,0,0,1,27.027,7.259ZM17.54,8.05h0a1.439,1.439,0,0,1-.987-.412l-.019-.018Q15.209,6.324,13.913,5a1.343,1.343,0,0,1-.426-.952,1.437,1.437,0,0,1,.122-.564,1.4,1.4,0,0,1,1.412-.819,2.84,2.84,0,0,1,.77.415c.908.857,1.784,1.747,2.657,2.64a1.424,1.424,0,0,1,.423.991A1.347,1.347,0,0,1,17.544,8.05Zm5.34-2.689h-.018a1.311,1.311,0,0,1-1.313-1.3q-.009-.691-.009-1.383T21.549,1.3A1.31,1.31,0,0,1,22.864,0h.02a1.315,1.315,0,0,1,1.338,1.3c0,.173.006.346.006.519,0,.288,0,.576,0,.865s0,.576,0,.864c0,.173,0,.346-.006.519a1.317,1.317,0,0,1-1.334,1.3Z" transform="translate(65.001 -1226.984)"/>
  </g>
</svg>
